<svg id="SvgjsSvg1027" width="288" height="288" xmlns="http://www.w3.org/2000/svg" version="1.1" xmlns:xlink="http://www.w3.org/1999/xlink" xmlns:svgjs="http://svgjs.com/svgjs"><defs id="SvgjsDefs1028"></defs><g id="SvgjsG1029"><svg xmlns="http://www.w3.org/2000/svg" width="288" height="288" version="1.0" viewBox="0 0 128 128"><g transform="matrix(.1 0 0 -.1 0 128)" fill="#ff7f11" class="color000 svgShape"><path d="M605 1057c-55-26-165-137-165-166 0-10 16-31 35-45 35-27 36-27 87-12 46 13 54 13 68 1 9-9 36-15 60-15 36 0 50-6 76-31 32-31 33-31 83-19 73 17 77 26 52 109-22 72-65 139-113 174-42 32-122 33-183 4zm169-58c36-31 86-123 86-157 0-12-9-22-22-26-18-5-29 1-49 24-22 26-32 30-74 30-31 0-55 6-67 17-17 15-23 15-71 1-92-25-101-5-29 64 90 87 163 102 226 47zM230 975c-11-14-6-23 40-66 50-47 79-58 87-33 3 10-86 105-106 112-5 1-14-4-21-13zM1013 850c-42-19-56-46-30-56 7-2 34 5 60 16 33 15 47 27 47 40 0 25-22 25-77 0zM197 823c-4-3-7-15-7-25 0-16 9-18 70-18 56 0 72 3 77 16 3 9 0 20-8 25-16 10-123 12-132 2zM535 780c-10-17 20-44 40-36 9 3 15 14 13 23-4 21-43 30-53 13zM616 781c-10-16 5-41 24-41 19 0 34 25 24 41-3 5-14 9-24 9-10 0-21-4-24-9zM273 707c-52-41-69-77-36-77 27 0 125 79 121 98-6 29-31 23-85-21zM974 735c-3-8-3-18 0-24 12-18 98-63 112-57 28 11 13 36-38 66-61 34-67 35-74 15zM687 724c-19-10-41-13-66-9-25 4-52 1-80-11-39-16-45-16-76-1-41 20-47 14-70-67-38-131-17-280 49-348 58-60 97-73 216-73 89 0 111 3 146 22 54 29 107 92 123 145 24 79 13 226-24 314-16 39-23 41-74 15l-37-20-30 24c-34 28-40 29-77 9zm70-66c24-23 25-23 94 6 37 16 56-204 25-279-37-88-101-125-216-125-176 0-259 107-231 298 13 90 16 94 46 86 13-3 47 2 74 11 38 12 55 14 70 5 15-8 29-7 53 4 46 20 58 19 85-6z" fill="#ff7f11" class="color000 svgShape"></path></g></svg></g></svg>