<svg id="SvgjsSvg1001" width="288" height="288" xmlns="http://www.w3.org/2000/svg" version="1.1" xmlns:xlink="http://www.w3.org/1999/xlink" xmlns:svgjs="http://svgjs.com/svgjs"><defs id="SvgjsDefs1002"></defs><g id="SvgjsG1008" transform="matrix(0.9167,0,0,0.9167,11.995200000000011,11.995199682235722)"><svg xmlns="http://www.w3.org/2000/svg" width="288" height="288" version="1.0" viewBox="0 0 512 512"><g transform="matrix(.1 0 0 -.1 0 512)" fill="#5bf7be" class="color000 svgShape"><path d="M2472 4940c-67-41-72-60-72-300 0-197 2-218 20-248 30-48 75-72 140-72 65 0 110 24 140 72 18 30 20 51 20 248 0 197-2 218-20 248-30 48-75 72-140 72-37 0-66-6-88-20zM3995 4350c-50-11-65-23-207-167-113-114-137-145-143-176-25-131 71-227 201-202 31 5 63 32 177 143 76 75 146 150 154 166 20 38 20 114 0 152-34 66-110 101-182 84zM1043 4339c-61-18-113-94-113-164 1-48 43-106 172-232 109-107 141-133 172-138 130-25 226 71 201 202-6 31-30 62-138 172-162 164-203 186-294 160zM2490 3999c-317-30-593-160-821-388-152-152-260-324-324-517-155-459-25-974 334-1324 148-145 213-279 236-486 8-72 32-116 77-144 32-19 52-20 568-20 516 0 536 1 568 20 46 29 70 73 77 149 14 141 64 275 141 377 20 27 78 90 128 139 186 184 305 411 352 673 21 116 20 354-1 469-120 657-698 1113-1335 1052zm310-351c415-99 711-486 712-932 1-127-10-199-44-306-47-148-116-255-265-413-158-166-248-316-298-496l-18-61-326 0-327 0-28 90c-32 103-98 237-153 313-21 29-81 98-134 154-149 157-218 273-276 460-24 79-27 104-27 243-1 184 15 255 94 415 203 411 662 636 1090 533zM392 2860c-48-30-72-75-72-140 0-65 24-110 72-140 30-18 51-20 248-20 240 0 259 5 300 72 27 45 27 131 0 176-41 67-60 72-300 72-197 0-218-2-248-20zM4232 2860c-48-30-72-75-72-140 0-65 24-110 72-140 30-18 51-20 248-20 197 0 218 2 248 20 48 30 72 75 72 140 0 65-24 110-72 140-30 18-51 20-248 20-197 0-218-2-248-20zM1992 940c-48-30-72-75-72-140 0-65 24-110 72-140 32-19 52-20 568-20 516 0 536 1 568 20 48 30 72 75 72 140 0 65-24 110-72 140-32 19-52 20-568 20-516 0-536-1-568-20zM2152 460c-48-30-72-75-72-140 0-65 24-110 72-140 31-19 51-20 408-20 357 0 377 1 408 20 48 30 72 75 72 140 0 65-24 110-72 140-31 19-51 20-408 20-357 0-377-1-408-20z" fill="#5bf7be" class="color000 svgShape"></path></g></svg></g></svg>