<svg id="SvgjsSvg1012" width="288" height="288" xmlns="http://www.w3.org/2000/svg" version="1.1" xmlns:xlink="http://www.w3.org/1999/xlink" xmlns:svgjs="http://svgjs.com/svgjs"><defs id="SvgjsDefs1013"></defs><g id="SvgjsG1014"><svg xmlns="http://www.w3.org/2000/svg" width="288" height="288" version="1.0" viewBox="0 0 512 512"><g transform="matrix(.1 0 0 -.1 0 512)" fill="#ff1b1c" class="color000 svgShape"><path d="M2653 4690 c-77 -16 -142 -51 -187 -101 -53 -59 -69 -113 -64 -214 3-70 8 -85 71 -208 37 -72 67 -137 67 -144 0 -15 -47 -52 -155 -123 -158 -102
-298 -268 -386 -454 -83 -177 -169 -512 -169 -656 0 -109 16 -193 41 -212 30
-25 66 -22 94 7 24 23 25 29 25 155 0 157 21 272 80 445 121 351 310 571 584
681 26 10 62 31 78 47 27 24 30 33 25 66 -3 22 -22 65 -46 99 -23 34 -66 108
-97 166 -81 154 -75 212 26 264 60 30 120 28 260 -9 85 -22 147 -32 238 -36
89 -4 125 -9 129 -19 5 -12 -62 -195 -94 -257 -8 -16 -30 -46 -50 -68 -41 -45
-120 -74 -175 -64 -34 6 -115 -22 -150 -53 -23 -19 -23 -80 -2 -111 19 -27 56
-26 164 4 109 30 118 25 332 -188 203 -200 270 -282 329 -402 55 -112 79 -216
79 -339 0 -61 5 -111 13 -126 27 -53 106 -49 128 7 17 45 22 175 10 249 -28
168 -101 338 -203 473 -23 31 -111 126 -195 211 -83 85 -156 168 -162 183 -16
41 7 119 86 301 107 248 113 264 113 310 0 33 -7 52 -26 75 -33 40 -73 41
-163 5 -92 -37 -194 -36 -358 5 -137 34 -229 44 -290 31z" fill="#ff1b1c" class="color000 svgShape"></path><path d="M2835 3636 c-20 -20 -25 -35 -25 -75 0 -42 -6 -56 -39 -98 -21 -26
-48 -57 -61 -68 -12 -11 -34 -42 -48 -70 -22 -41 -27 -64 -27 -125 0 -127 43
-177 240 -284 156 -85 179 -112 173 -194 -7 -86 -73 -152 -152 -152 -53 0 -78
18 -121 86 -30 46 -39 54 -65 54 -41 0 -80 -39 -80 -80 0 -37 22 -92 57 -142
21 -31 171 -168 210 -191 20 -13 41 4 58 46 22 54 38 72 91 97 54 26 99 77
133 150 22 46 26 69 26 140 -1 158 -60 235 -255 334 -137 70 -160 88 -160 130
0 40 41 101 81 122 43 22 76 6 134 -62 41 -48 51 -54 85 -54 29 0 43 6 54 22
37 52 6 124 -100 237 -41 43 -89 105 -107 137 -38 69 -63 79 -102 40z" fill="#ff1b1c" class="color000 svgShape"></path><path d="M4020 2753 c-56 -9 -100 -29 -190 -85 -124 -78 -163 -116 -213 -212
-47 -91 -122 -173 -188 -204 -99 -48 -196 -51 -386 -12 -115 24 -164 25 -341
4 -208 -24 -230 -17 -283 88 -44 88 -72 99 -289 111 -148 9 -193 8 -290 -6
-135 -20 -217 -45 -289 -90 -29 -19 -128 -115 -234 -227 -100 -107 -197 -202
-215 -213 -30 -18 -34 -18 -57 -3 -13 8 -45 46 -71 83 -71 102 -83 113 -120
113 -43 0 -61 -20 -70 -78 -6 -44 -16 -56 -164 -208 -207 -210 -215 -236 -123
-372 25 -36 98 -118 163 -182 64 -63 188 -192 274 -287 236 -259 380 -386 547
-483 136 -80 193 -86 263 -28 70 57 319 342 339 387 23 53 19 114 -14 191 -27
64 -19 73 61 66 30 -3 282 -6 560 -7 491 -2 507 -1 571 20 77 25 176 87 212
134 13 17 88 95 167 172 164 163 465 497 563 627 86 114 163 270 178 363 10
60 10 78 -4 126 -31 104 -129 186 -251 208 -33 6 -64 10 -70 10 -6 -1 -22 -4
-36 -6z m121 -179 c52 -26 89 -73 89 -112 0 -50 -83 -215 -157 -314 -90 -119
-330 -382 -560 -616 -174 -175 -221 -217 -269 -240 l-59 -27 -572 3 c-553 4
-575 3 -652 -17 -91 -24 -142 -26 -174 -9 -51 27 -345 256 -401 312 -62 62
-127 152 -146 200 -9 24 -2 35 98 144 264 289 340 346 491 372 97 16 412 10
435 -9 9 -7 30 -42 46 -76 55 -115 69 -119 451 -104 298 12 307 12 340 -7 43
-25 99 -107 99 -145 0 -49 -27 -64 -191 -104 -290 -71 -435 -82 -600 -45 -99
22 -136 37 -188 75 -45 33 -64 32 -96 -7 -21 -25 -26 -39 -22 -65 13 -79 67
-117 220 -153 206 -49 411 -45 625 12 64 17 144 35 177 40 91 15 141 36 174
74 34 38 61 118 61 179 0 88 29 124 111 139 50 9 124 60 158 110 16 22 42 71
59 108 51 112 146 198 304 273 74 36 94 37 149 9z m-3143 -836 c64 -51 110
-99 153 -158 102 -140 213 -240 469 -422 36 -25 92 -74 125 -108 66 -67 101
-90 139 -90 37 0 51 -32 31 -69 -19 -38 -156 -178 -214 -220 -126 -90 -265 -1
-661 425 -106 115 -242 259 -302 320 -118 122 -126 138 -87 200 11 18 65 74
120 124 81 73 103 89 117 81 10 -5 59 -42 110 -83z" fill="#ff1b1c" class="color000 svgShape"></path><path d="M910 1587 c-48 -24 -36 -136 21 -202 50 -56 144 -68 163 -20 15 40
-34 145 -93 198 -45 40 -54 43 -91 24z" fill="#ff1b1c" class="color000 svgShape"></path></g></svg></g></svg>